<svg width="24" height="13" viewBox="0 0 24 13" fill="none" xmlns="http://www.w3.org/2000/svg">
<path d="M13.3792 0.62958C13.6521 0.36974 14.0153 0.22609 14.3921 0.228941C14.7689 0.231793 15.1299 0.380923 15.3989 0.644863C15.6679 0.908803 15.8238 1.26691 15.8337 1.64362C15.8437 2.02033 15.7069 2.38617 15.4523 2.66396L7.72166 12.3321C7.58873 12.4753 7.42829 12.5902 7.24994 12.6699C7.07159 12.7497 6.87899 12.7926 6.68365 12.7963C6.48831 12.7999 6.29425 12.7641 6.11306 12.691C5.93188 12.6179 5.7673 12.509 5.62916 12.3708L0.502536 7.24421C0.359768 7.11117 0.245257 6.95075 0.165836 6.7725C0.0864136 6.59425 0.0437077 6.40183 0.0402652 6.20672C0.0368227 6.01161 0.0727142 5.8178 0.145799 5.63686C0.218883 5.45592 0.327663 5.29156 0.46565 5.15357C0.603636 5.01558 0.768001 4.9068 0.948941 4.83372C1.12988 4.76063 1.32369 4.72474 1.5188 4.72818C1.71391 4.73163 1.90633 4.77433 2.08458 4.85376C2.26283 4.93318 2.42325 5.04769 2.55629 5.19046L6.61341 9.24564L13.3404 0.672206C13.3525 0.657247 13.3654 0.643014 13.3792 0.62958ZM11.5967 10.5883L13.3792 12.3708C13.5173 12.5087 13.6817 12.6173 13.8627 12.6902C14.0437 12.7632 14.2376 12.7989 14.4327 12.7953C14.6278 12.7916 14.8201 12.7488 14.9983 12.6692C15.1765 12.5896 15.3368 12.475 15.4697 12.3321L23.2042 2.66396C23.3432 2.52678 23.453 2.36302 23.5273 2.18244C23.6015 2.00186 23.6386 1.80817 23.6363 1.61294C23.6341 1.41771 23.5925 1.22494 23.514 1.04614C23.4356 0.867341 23.3219 0.706183 23.1798 0.572287C23.0377 0.438392 22.8701 0.334506 22.687 0.266834C22.5038 0.199162 22.3089 0.16909 22.1139 0.178417C21.9189 0.187743 21.7277 0.236275 21.5519 0.321115C21.376 0.405955 21.2191 0.525362 21.0904 0.672206L14.3615 9.24564L13.4218 8.30402L11.5947 10.5883H11.5967Z" fill="#F85E17"/>
</svg>
