<svg width="70" height="70" viewBox="0 0 70 70" fill="none" xmlns="http://www.w3.org/2000/svg">
<path d="M44.6745 54.71C45.2143 54.7131 45.7492 54.6087 46.2482 54.4028C46.7472 54.1969 47.2001 53.8937 47.5806 53.5109L53.0881 48.0035C53.4666 47.6227 53.679 47.1077 53.679 46.5708C53.679 46.0339 53.4666 45.5188 53.0881 45.138L44.959 37.009C44.5783 36.6305 44.0632 36.418 43.5263 36.418C42.9894 36.418 42.4743 36.6305 42.0935 37.009L38.8419 40.2403C36.5907 39.64 34.5057 38.535 32.7452 37.009C31.2232 35.2456 30.1187 33.1616 29.5139 30.9122L32.7452 27.6606C33.1237 27.2798 33.3361 26.7648 33.3361 26.2279C33.3361 25.691 33.1237 25.1759 32.7452 24.7951L24.6161 16.6661C24.2354 16.2876 23.7203 16.0751 23.1834 16.0751C22.6465 16.0751 22.1314 16.2876 21.7506 16.6661L16.2636 22.1938C15.8807 22.5744 15.5776 23.0273 15.3717 23.5263C15.1658 24.0252 15.0614 24.5602 15.0645 25.1C15.2489 32.9085 18.3691 40.3608 23.8032 45.9713C29.4137 51.4054 36.866 54.5256 44.6745 54.71ZM23.1936 20.9948L28.4571 26.2584L25.8355 28.88C25.5872 29.1125 25.4013 29.4038 25.2947 29.7269C25.1882 30.05 25.1645 30.3947 25.2258 30.7293C25.9854 34.1239 27.5936 37.2704 29.9 39.8745C32.502 42.1838 35.6493 43.7925 39.0452 44.5487C39.3748 44.6176 39.7163 44.6035 40.0391 44.5077C40.3619 44.4119 40.6558 44.2375 40.8945 44L43.5161 41.3174L48.7797 46.5809L44.7152 50.6454C37.9757 50.4719 31.5451 47.7823 26.689 43.1058C22.0004 38.2477 19.303 31.8087 19.129 25.0593L23.1936 20.9948ZM51.6452 32.3551H55.7097C55.7624 29.9388 55.3253 27.5368 54.4248 25.2939C53.5243 23.051 52.1789 21.0136 50.4699 19.3046C48.7609 17.5955 46.7235 16.2502 44.4806 15.3497C42.2377 14.4492 39.8357 14.0121 37.4194 14.0648V18.1293C39.3051 18.0641 41.1841 18.3874 42.9396 19.0793C44.695 19.7711 46.2894 20.8166 47.6236 22.1508C48.9579 23.4851 50.0034 25.0794 50.6952 26.8349C51.387 28.5904 51.7104 30.4694 51.6452 32.3551Z" fill="#F85E17"/>
<path d="M37.4199 26.2579C41.6877 26.2579 43.5167 28.0869 43.5167 32.3547H47.5812C47.5812 25.8108 43.9638 22.1934 37.4199 22.1934V26.2579Z" fill="#F85E17"/>
<rect x="1" y="1" width="68" height="68" stroke="#F85E17" stroke-width="2" stroke-dasharray="4 4"/>
</svg>
